solid
facet normal 0 0 1
outer loop
vertex -3.12458e-14 -3.82639e-30 0.16
vertex -0.02 -2.44921e-18 0.16
vertex -3.06979e-14 -5.8261e-15 0.16
endloop
endfacet
facet normal 0 0 1
outer loop
vertex -0.02 -2.44921e-18 0.16
vertex -0.0196493 -0.0037292 0.16
vertex -3.06979e-14 -5.8261e-15 0.16
endloop
endfacet
facet normal 0 0 1
outer loop
vertex -3.06979e-14 -5.8261e-15 0.16
vertex -0.0196493 -0.0037292 0.16
vertex -3.00174e-14 -8.67509e-15 0.16
endloop
endfacet
facet normal 0 0 1
outer loop
vertex -0.0196493 -0.0037292 0.16
vertex -0.0192137 -0.0055528 0.16
vertex -3.00174e-14 -8.67509e-15 0.16
endloop
endfacet
facet normal 0 0 1
outer loop
vertex -3.00174e-14 -8.67509e-15 0.16
vertex -0.0192137 -0.0055528 0.16
vertex -2.90732e-14 -1.14479e-14 0.16
endloop
endfacet
facet normal 0 0 1
outer loop
vertex -0.0192137 -0.0055528 0.16
vertex -0.0186093 -0.0073276 0.16
vertex -2.90732e-14 -1.14479e-14 0.16
endloop
endfacet
facet normal 0 0 1
outer loop
vertex -2.90732e-14 -1.14479e-14 0.16
vertex -0.0186093 -0.0073276 0.16
vertex -2.78734e-14 -1.412e-14 0.16
endloop
endfacet
facet normal 0 0 1
outer loop
vertex -0.0186093 -0.0073276 0.16
vertex -0.0178414 -0.00903801 0.16
vertex -2.78734e-14 -1.412e-14 0.16
endloop
endfacet
facet normal 0 0 1
outer loop
vertex -2.78734e-14 -1.412e-14 0.16
vertex -0.0178414 -0.00903801 0.16
vertex -2.64287e-14 -1.66681e-14 0.16
endloop
endfacet
facet normal 0 0 1
outer loop
vertex -0.0178414 -0.00903801 0.16
vertex -0.0169166 -0.010669 0.16
vertex -2.64287e-14 -1.66681e-14 0.16
endloop
endfacet
facet normal 0 0 1
outer loop
vertex -2.64287e-14 -1.66681e-14 0.16
vertex -0.0169166 -0.010669 0.16
vertex -2.47518e-14 -1.90697e-14 0.16
endloop
endfacet
facet normal 0 0 1
outer loop
vertex -0.0169166 -0.010669 0.16
vertex -0.0158432 -0.0122062 0.16
vertex -2.47518e-14 -1.90697e-14 0.16
endloop
endfacet
facet normal 0 0 1
outer loop
vertex -2.47518e-14 -1.90697e-14 0.16
vertex -0.0158432 -0.0122062 0.16
vertex -2.28573e-14 -2.13037e-14 0.16
endloop
endfacet
facet normal 0 0 1
outer loop
vertex -0.0158432 -0.0122062 0.16
vertex -0.0146306 -0.0136362 0.16
vertex -2.28573e-14 -2.13037e-14 0.16
endloop
endfacet
facet normal 0 0 1
outer loop
vertex -2.28573e-14 -2.13037e-14 0.16
vertex -0.0146306 -0.0136362 0.16
vertex -2.0762e-14 -2.33504e-14 0.16
endloop
endfacet
facet normal 0 0 1
outer loop
vertex -0.0146306 -0.0136362 0.16
vertex -0.0132894 -0.0149463 0.16
vertex -2.0762e-14 -2.33504e-14 0.16
endloop
endfacet
facet normal 0 0 1
outer loop
vertex -2.0762e-14 -2.33504e-14 0.16
vertex -0.0132894 -0.0149463 0.16
vertex -1.84842e-14 -2.5192e-14 0.16
endloop
endfacet
facet normal 0 0 1
outer loop
vertex -0.0132894 -0.0149463 0.16
vertex -0.0118314 -0.016125 0.16
vertex -1.84842e-14 -2.5192e-14 0.16
endloop
endfacet
facet normal 0 0 1
outer loop
vertex -1.84842e-14 -2.5192e-14 0.16
vertex -0.0118314 -0.016125 0.16
vertex -1.60439e-14 -2.68122e-14 0.16
endloop
endfacet
facet normal 0 0 1
outer loop
vertex -0.0118314 -0.016125 0.16
vertex -0.0102695 -0.0171621 0.16
vertex -1.60439e-14 -2.68122e-14 0.16
endloop
endfacet
facet normal 0 0 1
outer loop
vertex -1.60439e-14 -2.68122e-14 0.16
vertex -0.0102695 -0.0171621 0.16
vertex -1.34627e-14 -2.81968e-14 0.16
endloop
endfacet
facet normal 0 0 1
outer loop
vertex -0.0102695 -0.0171621 0.16
vertex -0.00861727 -0.0180483 0.16
vertex -1.34627e-14 -2.81968e-14 0.16
endloop
endfacet
facet normal 0 0 1
outer loop
vertex -1.34627e-14 -2.81968e-14 0.16
vertex -0.00861727 -0.0180483 0.16
vertex -1.07632e-14 -2.93335e-14 0.16
endloop
endfacet
facet normal 0 0 1
outer loop
vertex -0.00861727 -0.0180483 0.16
vertex -0.00688934 -0.018776 0.16
vertex -1.07632e-14 -2.93335e-14 0.16
endloop
endfacet
facet normal 0 0 1
outer loop
vertex -1.07632e-14 -2.93335e-14 0.16
vertex -0.00688934 -0.018776 0.16
vertex -7.96903e-15 -3.02125e-14 0.16
endloop
endfacet
facet normal 0 0 1
outer loop
vertex -0.00688934 -0.018776 0.16
vertex -0.00510086 -0.0193386 0.16
vertex -7.96903e-15 -3.02125e-14 0.16
endloop
endfacet
facet normal 0 0 1
outer loop
vertex -7.96903e-15 -3.02125e-14 0.16
vertex -0.00510086 -0.0193386 0.16
vertex -5.10486e-15 -3.0826e-14 0.16
endloop
endfacet
facet normal 0 0 1
outer loop
vertex -0.00510086 -0.0193386 0.16
vertex -0.00326755 -0.0197313 0.16
vertex -5.10486e-15 -3.0826e-14 0.16
endloop
endfacet
facet normal 0 0 1
outer loop
vertex -5.10486e-15 -3.0826e-14 0.16
vertex -0.00326755 -0.0197313 0.16
vertex -2.19584e-15 -3.11686e-14 0.16
endloop
endfacet
facet normal 0 0 1
outer loop
vertex -0.00326755 -0.0197313 0.16
vertex -0.00140552 -0.0199506 0.16
vertex -2.19584e-15 -3.11686e-14 0.16
endloop
endfacet
facet normal 0 0 1
outer loop
vertex -2.19584e-15 -3.11686e-14 0.16
vertex -0.00140552 -0.0199506 0.16
vertex 7.32483e-16 -3.12373e-14 0.16
endloop
endfacet
facet normal 0 0 1
outer loop
vertex -0.00140552 -0.0199506 0.16
vertex 0.000468851 -0.0199945 0.16
vertex 7.32483e-16 -3.12373e-14 0.16
endloop
endfacet
facet normal 0 0 1
outer loop
vertex 7.32483e-16 -3.12373e-14 0.16
vertex 0.000468851 -0.0199945 0.16
vertex 3.65437e-15 -3.10314e-14 0.16
endloop
endfacet
facet normal 0 0 1
outer loop
vertex 0.000468851 -0.0199945 0.16
vertex 0.00233911 -0.0198627 0.16
vertex 3.65437e-15 -3.10314e-14 0.16
endloop
endfacet
facet normal 0 0 1
outer loop
vertex 3.65437e-15 -3.10314e-14 0.16
vertex 0.00233911 -0.0198627 0.16
vertex 6.54414e-15 -3.05529e-14 0.16
endloop
endfacet
facet normal 0 0 1
outer loop
vertex 0.00233911 -0.0198627 0.16
vertex 0.00418881 -0.0195564 0.16
vertex 6.54414e-15 -3.05529e-14 0.16
endloop
endfacet
facet normal 0 0 1
outer loop
vertex 6.54414e-15 -3.05529e-14 0.16
vertex 0.00418881 -0.0195564 0.16
vertex 9.3764e-15 -2.98058e-14 0.16
endloop
endfacet
facet normal 0 0 1
outer loop
vertex 0.00418881 -0.0195564 0.16
vertex 0.00600169 -0.0190783 0.16
vertex 9.3764e-15 -2.98058e-14 0.16
endloop
endfacet
facet normal 0 0 1
outer loop
vertex 9.3764e-15 -2.98058e-14 0.16
vertex 0.00600169 -0.0190783 0.16
vertex 1.21263e-14 -2.87968e-14 0.16
endloop
endfacet
facet normal 0 0 1
outer loop
vertex 0.00600169 -0.0190783 0.16
vertex 0.00776184 -0.0184324 0.16
vertex 1.21263e-14 -2.87968e-14 0.16
endloop
endfacet
facet normal 0 0 1
outer loop
vertex 1.21263e-14 -2.87968e-14 0.16
vertex 0.00776184 -0.0184324 0.16
vertex 1.47695e-14 -2.75348e-14 0.16
endloop
endfacet
facet normal 0 0 1
outer loop
vertex 0.00776184 -0.0184324 0.16
vertex 0.00945377 -0.0176246 0.16
vertex 1.47695e-14 -2.75348e-14 0.16
endloop
endfacet
facet normal 0 0 1
outer loop
vertex 1.47695e-14 -2.75348e-14 0.16
vertex 0.00945377 -0.0176246 0.16
vertex 1.7283e-14 -2.60307e-14 0.16
endloop
endfacet
facet normal 0 0 1
outer loop
vertex 0.00945377 -0.0176246 0.16
vertex 0.0110626 -0.0166619 0.16
vertex 1.7283e-14 -2.60307e-14 0.16
endloop
endfacet
facet normal 0 0 1
outer loop
vertex 1.7283e-14 -2.60307e-14 0.16
vertex 0.0110626 -0.0166619 0.16
vertex 1.96447e-14 -2.42979e-14 0.16
endloop
endfacet
facet normal 0 0 1
outer loop
vertex 0.0110626 -0.0166619 0.16
vertex 0.0125743 -0.0155528 0.16
vertex 1.96447e-14 -2.42979e-14 0.16
endloop
endfacet
facet normal 0 0 1
outer loop
vertex 1.96447e-14 -2.42979e-14 0.16
vertex 0.0125743 -0.0155528 0.16
vertex 2.18336e-14 -2.23516e-14 0.16
endloop
endfacet
facet normal 0 0 1
outer loop
vertex 0.0125743 -0.0155528 0.16
vertex 0.0139754 -0.0143069 0.16
vertex 2.18336e-14 -2.23516e-14 0.16
endloop
endfacet
facet normal 0 0 1
outer loop
vertex 2.18336e-14 -2.23516e-14 0.16
vertex 0.0139754 -0.0143069 0.16
vertex 2.38307e-14 -2.02089e-14 0.16
endloop
endfacet
facet normal 0 0 1
outer loop
vertex 0.0139754 -0.0143069 0.16
vertex 0.0152537 -0.0129354 0.16
vertex 2.38307e-14 -2.02089e-14 0.16
endloop
endfacet
facet normal 0 0 1
outer loop
vertex 2.38307e-14 -2.02089e-14 0.16
vertex 0.0152537 -0.0129354 0.16
vertex 2.56184e-14 -1.78885e-14 0.16
endloop
endfacet
facet normal 0 0 1
outer loop
vertex 0.0152537 -0.0129354 0.16
vertex 0.016398 -0.0114502 0.16
vertex 2.56184e-14 -1.78885e-14 0.16
endloop
endfacet
facet normal 0 0 1
outer loop
vertex 2.56184e-14 -1.78885e-14 0.16
vertex 0.016398 -0.0114502 0.16
vertex 2.7181e-14 -1.5411e-14 0.16
endloop
endfacet
facet normal 0 0 1
outer loop
vertex 0.016398 -0.0114502 0.16
vertex 0.0173981 -0.00986434 0.16
vertex 2.7181e-14 -1.5411e-14 0.16
endloop
endfacet
facet normal 0 0 1
outer loop
vertex 2.7181e-14 -1.5411e-14 0.16
vertex 0.0173981 -0.00986434 0.16
vertex 2.85046e-14 -1.2798e-14 0.16
endloop
endfacet
facet normal 0 0 1
outer loop
vertex 0.0173981 -0.00986434 0.16
vertex 0.0182454 -0.00819181 0.16
vertex 2.85046e-14 -1.2798e-14 0.16
endloop
endfacet
facet normal 0 0 1
outer loop
vertex 2.85046e-14 -1.2798e-14 0.16
vertex 0.0182454 -0.00819181 0.16
vertex 2.95778e-14 -1.00725e-14 0.16
endloop
endfacet
facet normal 0 0 1
outer loop
vertex 0.0182454 -0.00819181 0.16
vertex 0.0189323 -0.00644729 0.16
vertex 2.95778e-14 -1.00725e-14 0.16
endloop
endfacet
facet normal 0 0 1
outer loop
vertex 2.95778e-14 -1.00725e-14 0.16
vertex 0.0189323 -0.00644729 0.16
vertex 3.0391e-14 -7.25858e-15 0.16
endloop
endfacet
facet normal 0 0 1
outer loop
vertex 0.0189323 -0.00644729 0.16
vertex 0.0194529 -0.00464611 0.16
vertex 3.0391e-14 -7.25858e-15 0.16
endloop
endfacet
facet normal 0 0 1
outer loop
vertex 3.0391e-14 -7.25858e-15 0.16
vertex 0.0194529 -0.00464611 0.16
vertex 3.09372e-14 -4.38082e-15 0.16
endloop
endfacet
facet normal 0 0 1
outer loop
vertex 0.0194529 -0.00464611 0.16
vertex 0.0198025 -0.0028041 0.16
vertex 3.09372e-14 -4.38082e-15 0.16
endloop
endfacet
facet normal 0 0 1
outer loop
vertex 3.09372e-14 -4.38082e-15 0.16
vertex 0.0198025 -0.0028041 0.16
vertex 3.12115e-14 -1.46456e-15 0.16
endloop
endfacet
facet normal 0 0 1
outer loop
vertex 0.0198025 -0.0028041 0.16
vertex 0.019978 -0.000937445 0.16
vertex 3.12115e-14 -1.46456e-15 0.16
endloop
endfacet
facet normal 0 0 1
outer loop
vertex 3.12115e-14 -1.46456e-15 0.16
vertex 0.019978 -0.000937445 0.16
vertex 3.12115e-14 1.46456e-15 0.16
endloop
endfacet
facet normal 0 0 1
outer loop
vertex 0.019978 -0.000937445 0.16
vertex 0.019978 0.000937445 0.16
vertex 3.12115e-14 1.46456e-15 0.16
endloop
endfacet
facet normal 0 0 1
outer loop
vertex 3.12115e-14 1.46456e-15 0.16
vertex 0.019978 0.000937445 0.16
vertex 3.09372e-14 4.38082e-15 0.16
endloop
endfacet
facet normal 0 0 1
outer loop
vertex 0.019978 0.000937445 0.16
vertex 0.0198025 0.0028041 0.16
vertex 3.09372e-14 4.38082e-15 0.16
endloop
endfacet
facet normal 0 0 1
outer loop
vertex 3.09372e-14 4.38082e-15 0.16
vertex 0.0198025 0.0028041 0.16
vertex 3.0391e-14 7.25858e-15 0.16
endloop
endfacet
facet normal 0 0 1
outer loop
vertex 0.0198025 0.0028041 0.16
vertex 0.0194529 0.00464611 0.16
vertex 3.0391e-14 7.25858e-15 0.16
endloop
endfacet
facet normal 0 0 1
outer loop
vertex 3.0391e-14 7.25858e-15 0.16
vertex 0.0194529 0.00464611 0.16
vertex 2.95778e-14 1.00725e-14 0.16
endloop
endfacet
facet normal 0 0 1
outer loop
vertex 0.0194529 0.00464611 0.16
vertex 0.0189323 0.00644729 0.16
vertex 2.95778e-14 1.00725e-14 0.16
endloop
endfacet
facet normal 0 0 1
outer loop
vertex 2.95778e-14 1.00725e-14 0.16
vertex 0.0189323 0.00644729 0.16
vertex 2.85046e-14 1.2798e-14 0.16
endloop
endfacet
facet normal 0 0 1
outer loop
vertex 0.0189323 0.00644729 0.16
vertex 0.0182454 0.00819181 0.16
vertex 2.85046e-14 1.2798e-14 0.16
endloop
endfacet
facet normal 0 0 1
outer loop
vertex 2.85046e-14 1.2798e-14 0.16
vertex 0.0182454 0.00819181 0.16
vertex 2.7181e-14 1.5411e-14 0.16
endloop
endfacet
facet normal 0 0 1
outer loop
vertex 0.0182454 0.00819181 0.16
vertex 0.0173981 0.00986434 0.16
vertex 2.7181e-14 1.5411e-14 0.16
endloop
endfacet
facet normal 0 0 1
outer loop
vertex 2.7181e-14 1.5411e-14 0.16
vertex 0.0173981 0.00986434 0.16
vertex 2.56184e-14 1.78885e-14 0.16
endloop
endfacet
facet normal 0 0 1
outer loop
vertex 0.0173981 0.00986434 0.16
vertex 0.016398 0.0114502 0.16
vertex 2.56184e-14 1.78885e-14 0.16
endloop
endfacet
facet normal 0 0 1
outer loop
vertex 2.56184e-14 1.78885e-14 0.16
vertex 0.016398 0.0114502 0.16
vertex 2.38307e-14 2.02089e-14 0.16
endloop
endfacet
facet normal 0 0 1
outer loop
vertex 0.016398 0.0114502 0.16
vertex 0.0152537 0.0129354 0.16
vertex 2.38307e-14 2.02089e-14 0.16
endloop
endfacet
facet normal 0 0 1
outer loop
vertex 2.38307e-14 2.02089e-14 0.16
vertex 0.0152537 0.0129354 0.16
vertex 2.18336e-14 2.23516e-14 0.16
endloop
endfacet
facet normal 0 0 1
outer loop
vertex 0.0152537 0.0129354 0.16
vertex 0.0139754 0.0143069 0.16
vertex 2.18336e-14 2.23516e-14 0.16
endloop
endfacet
facet normal 0 0 1
outer loop
vertex 2.18336e-14 2.23516e-14 0.16
vertex 0.0139754 0.0143069 0.16
vertex 1.96447e-14 2.42979e-14 0.16
endloop
endfacet
facet normal 0 0 1
outer loop
vertex 0.0139754 0.0143069 0.16
vertex 0.0125743 0.0155528 0.16
vertex 1.96447e-14 2.42979e-14 0.16
endloop
endfacet
facet normal 0 0 1
outer loop
vertex 1.96447e-14 2.42979e-14 0.16
vertex 0.0125743 0.0155528 0.16
vertex 1.7283e-14 2.60307e-14 0.16
endloop
endfacet
facet normal 0 0 1
outer loop
vertex 0.0125743 0.0155528 0.16
vertex 0.0110626 0.0166619 0.16
vertex 1.7283e-14 2.60307e-14 0.16
endloop
endfacet
facet normal 0 0 1
outer loop
vertex 1.7283e-14 2.60307e-14 0.16
vertex 0.0110626 0.0166619 0.16
vertex 1.47695e-14 2.75348e-14 0.16
endloop
endfacet
facet normal 0 0 1
outer loop
vertex 0.0110626 0.0166619 0.16
vertex 0.00945377 0.0176246 0.16
vertex 1.47695e-14 2.75348e-14 0.16
endloop
endfacet
facet normal 0 0 1
outer loop
vertex 1.47695e-14 2.75348e-14 0.16
vertex 0.00945377 0.0176246 0.16
vertex 1.21263e-14 2.87968e-14 0.16
endloop
endfacet
facet normal 0 0 1
outer loop
vertex 0.00945377 0.0176246 0.16
vertex 0.00776184 0.0184324 0.16
vertex 1.21263e-14 2.87968e-14 0.16
endloop
endfacet
facet normal 0 0 1
outer loop
vertex 1.21263e-14 2.87968e-14 0.16
vertex 0.00776184 0.0184324 0.16
vertex 9.3764e-15 2.98058e-14 0.16
endloop
endfacet
facet normal 0 0 1
outer loop
vertex 0.00776184 0.0184324 0.16
vertex 0.00600169 0.0190783 0.16
vertex 9.3764e-15 2.98058e-14 0.16
endloop
endfacet
facet normal 0 0 1
outer loop
vertex 9.3764e-15 2.98058e-14 0.16
vertex 0.00600169 0.0190783 0.16
vertex 6.54414e-15 3.05529e-14 0.16
endloop
endfacet
facet normal 0 0 1
outer loop
vertex 0.00600169 0.0190783 0.16
vertex 0.00418881 0.0195564 0.16
vertex 6.54414e-15 3.05529e-14 0.16
endloop
endfacet
facet normal 0 0 1
outer loop
vertex 6.54414e-15 3.05529e-14 0.16
vertex 0.00418881 0.0195564 0.16
vertex 3.65437e-15 3.10314e-14 0.16
endloop
endfacet
facet normal 0 0 1
outer loop
vertex 0.00418881 0.0195564 0.16
vertex 0.00233911 0.0198627 0.16
vertex 3.65437e-15 3.10314e-14 0.16
endloop
endfacet
facet normal 0 0 1
outer loop
vertex 3.65437e-15 3.10314e-14 0.16
vertex 0.00233911 0.0198627 0.16
vertex 7.32483e-16 3.12373e-14 0.16
endloop
endfacet
facet normal 0 0 1
outer loop
vertex 0.00233911 0.0198627 0.16
vertex 0.000468851 0.0199945 0.16
vertex 7.32483e-16 3.12373e-14 0.16
endloop
endfacet
facet normal 0 0 1
outer loop
vertex 7.32483e-16 3.12373e-14 0.16
vertex 0.000468851 0.0199945 0.16
vertex -2.19584e-15 3.11686e-14 0.16
endloop
endfacet
facet normal 0 0 1
outer loop
vertex 0.000468851 0.0199945 0.16
vertex -0.00140552 0.0199506 0.16
vertex -2.19584e-15 3.11686e-14 0.16
endloop
endfacet
facet normal 0 0 1
outer loop
vertex -2.19584e-15 3.11686e-14 0.16
vertex -0.00140552 0.0199506 0.16
vertex -5.10486e-15 3.0826e-14 0.16
endloop
endfacet
facet normal 0 0 1
outer loop
vertex -0.00140552 0.0199506 0.16
vertex -0.00326755 0.0197313 0.16
vertex -5.10486e-15 3.0826e-14 0.16
endloop
endfacet
facet normal 0 0 1
outer loop
vertex -5.10486e-15 3.0826e-14 0.16
vertex -0.00326755 0.0197313 0.16
vertex -7.96903e-15 3.02125e-14 0.16
endloop
endfacet
facet normal 0 0 1
outer loop
vertex -0.00326755 0.0197313 0.16
vertex -0.00510086 0.0193386 0.16
vertex -7.96903e-15 3.02125e-14 0.16
endloop
endfacet
facet normal 0 0 1
outer loop
vertex -7.96903e-15 3.02125e-14 0.16
vertex -0.00510086 0.0193386 0.16
vertex -1.07632e-14 2.93335e-14 0.16
endloop
endfacet
facet normal 0 0 1
outer loop
vertex -0.00510086 0.0193386 0.16
vertex -0.00688934 0.018776 0.16
vertex -1.07632e-14 2.93335e-14 0.16
endloop
endfacet
facet normal 0 0 1
outer loop
vertex -1.07632e-14 2.93335e-14 0.16
vertex -0.00688934 0.018776 0.16
vertex -1.34627e-14 2.81968e-14 0.16
endloop
endfacet
facet normal 0 0 1
outer loop
vertex -0.00688934 0.018776 0.16
vertex -0.00861727 0.0180483 0.16
vertex -1.34627e-14 2.81968e-14 0.16
endloop
endfacet
facet normal 0 0 1
outer loop
vertex -1.34627e-14 2.81968e-14 0.16
vertex -0.00861727 0.0180483 0.16
vertex -1.60439e-14 2.68122e-14 0.16
endloop
endfacet
facet normal 0 0 1
outer loop
vertex -0.00861727 0.0180483 0.16
vertex -0.0102695 0.0171621 0.16
vertex -1.60439e-14 2.68122e-14 0.16
endloop
endfacet
facet normal 0 0 1
outer loop
vertex -1.60439e-14 2.68122e-14 0.16
vertex -0.0102695 0.0171621 0.16
vertex -1.84842e-14 2.5192e-14 0.16
endloop
endfacet
facet normal 0 0 1
outer loop
vertex -0.0102695 0.0171621 0.16
vertex -0.0118314 0.016125 0.16
vertex -1.84842e-14 2.5192e-14 0.16
endloop
endfacet
facet normal 0 0 1
outer loop
vertex -1.84842e-14 2.5192e-14 0.16
vertex -0.0118314 0.016125 0.16
vertex -2.0762e-14 2.33504e-14 0.16
endloop
endfacet
facet normal 0 0 1
outer loop
vertex -0.0118314 0.016125 0.16
vertex -0.0132894 0.0149463 0.16
vertex -2.0762e-14 2.33504e-14 0.16
endloop
endfacet
facet normal 0 0 1
outer loop
vertex -2.0762e-14 2.33504e-14 0.16
vertex -0.0132894 0.0149463 0.16
vertex -2.28573e-14 2.13037e-14 0.16
endloop
endfacet
facet normal 0 0 1
outer loop
vertex -0.0132894 0.0149463 0.16
vertex -0.0146306 0.0136362 0.16
vertex -2.28573e-14 2.13037e-14 0.16
endloop
endfacet
facet normal 0 0 1
outer loop
vertex -2.28573e-14 2.13037e-14 0.16
vertex -0.0146306 0.0136362 0.16
vertex -2.47518e-14 1.90697e-14 0.16
endloop
endfacet
facet normal 0 0 1
outer loop
vertex -0.0146306 0.0136362 0.16
vertex -0.0158432 0.0122062 0.16
vertex -2.47518e-14 1.90697e-14 0.16
endloop
endfacet
facet normal 0 0 1
outer loop
vertex -2.47518e-14 1.90697e-14 0.16
vertex -0.0158432 0.0122062 0.16
vertex -2.64287e-14 1.66681e-14 0.16
endloop
endfacet
facet normal 0 0 1
outer loop
vertex -0.0158432 0.0122062 0.16
vertex -0.0169166 0.010669 0.16
vertex -2.64287e-14 1.66681e-14 0.16
endloop
endfacet
facet normal 0 0 1
outer loop
vertex -2.64287e-14 1.66681e-14 0.16
vertex -0.0169166 0.010669 0.16
vertex -2.78734e-14 1.412e-14 0.16
endloop
endfacet
facet normal 0 0 1
outer loop
vertex -0.0169166 0.010669 0.16
vertex -0.0178414 0.00903801 0.16
vertex -2.78734e-14 1.412e-14 0.16
endloop
endfacet
facet normal 0 0 1
outer loop
vertex -2.78734e-14 1.412e-14 0.16
vertex -0.0178414 0.00903801 0.16
vertex -2.90732e-14 1.14479e-14 0.16
endloop
endfacet
facet normal 0 0 1
outer loop
vertex -0.0178414 0.00903801 0.16
vertex -0.0186093 0.0073276 0.16
vertex -2.90732e-14 1.14479e-14 0.16
endloop
endfacet
facet normal 0 0 1
outer loop
vertex -2.90732e-14 1.14479e-14 0.16
vertex -0.0186093 0.0073276 0.16
vertex -3.00174e-14 8.67509e-15 0.16
endloop
endfacet
facet normal 0 0 1
outer loop
vertex -0.0186093 0.0073276 0.16
vertex -0.0192137 0.0055528 0.16
vertex -3.00174e-14 8.67509e-15 0.16
endloop
endfacet
facet normal 0 0 1
outer loop
vertex -3.00174e-14 8.67509e-15 0.16
vertex -0.0192137 0.0055528 0.16
vertex -3.06979e-14 5.8261e-15 0.16
endloop
endfacet
facet normal 0 0 1
outer loop
vertex -0.0192137 0.0055528 0.16
vertex -0.0196493 0.0037292 0.16
vertex -3.06979e-14 5.8261e-15 0.16
endloop
endfacet
facet normal 0 0 1
outer loop
vertex -3.06979e-14 5.8261e-15 0.16
vertex -0.0196493 0.0037292 0.16
vertex -3.11085e-14 2.92591e-15 0.16
endloop
endfacet
facet normal 0 0 1
outer loop
vertex -0.0196493 0.0037292 0.16
vertex -0.02 1.22814e-15 0.16
vertex -3.11085e-14 2.92591e-15 0.16
endloop
endfacet
facet normal 0 0 1
outer loop
vertex -3.11085e-14 2.92591e-15 0.16
vertex -0.02 1.22814e-15 0.16
vertex -3.12458e-14 -3.82639e-30 0.16
endloop
endfacet
facet normal 0 0 1
outer loop
vertex -0.02 1.22814e-15 0.16
vertex -0.02 -2.44921e-18 0.16
vertex -3.12458e-14 -3.82639e-30 0.16
endloop
endfacet
facet normal -1 -0 -0
outer loop
vertex -0.02 -2.44921e-18 0.16
vertex -0.02 -2.44921e-18 -0.16
vertex -0.0196493 -0.0037292 0.16
endloop
endfacet
facet normal -0.988308 -0.124307 -0
outer loop
vertex -0.02 -2.44921e-18 -0.16
vertex -0.0196493 -0.0037292 -0.16
vertex -0.0196493 -0.0037292 0.16
endloop
endfacet
facet normal -0.982463 -0.18646 -0
outer loop
vertex -0.0196493 -0.0037292 0.16
vertex -0.0196493 -0.0037292 -0.16
vertex -0.0192137 -0.0055528 0.16
endloop
endfacet
facet normal -0.967944 -0.247247 -0
outer loop
vertex -0.0196493 -0.0037292 -0.16
vertex -0.0192137 -0.0055528 -0.16
vertex -0.0192137 -0.0055528 0.16
endloop
endfacet
facet normal -0.960685 -0.27764 -0
outer loop
vertex -0.0192137 -0.0055528 0.16
vertex -0.0192137 -0.0055528 -0.16
vertex -0.0186093 -0.0073276 0.16
endloop
endfacet
facet normal -0.940539 -0.3368 -0
outer loop
vertex -0.0192137 -0.0055528 -0.16
vertex -0.0186093 -0.0073276 -0.16
vertex -0.0186093 -0.0073276 0.16
endloop
endfacet
facet normal -0.930465 -0.36638 -0
outer loop
vertex -0.0186093 -0.0073276 0.16
vertex -0.0186093 -0.0073276 -0.16
vertex -0.0178414 -0.00903801 0.16
endloop
endfacet
facet normal -0.904867 -0.423394 -0
outer loop
vertex -0.0186093 -0.0073276 -0.16
vertex -0.0178414 -0.00903801 -0.16
vertex -0.0178414 -0.00903801 0.16
endloop
endfacet
facet normal -0.892068 -0.4519 -0
outer loop
vertex -0.0178414 -0.00903801 0.16
vertex -0.0178414 -0.00903801 -0.16
vertex -0.0169166 -0.010669 0.16
endloop
endfacet
facet normal -0.861244 -0.506266 -0
outer loop
vertex -0.0178414 -0.00903801 -0.16
vertex -0.0169166 -0.010669 -0.16
vertex -0.0169166 -0.010669 0.16
endloop
endfacet
facet normal -0.845832 -0.533449 -0
outer loop
vertex -0.0169166 -0.010669 0.16
vertex -0.0169166 -0.010669 -0.16
vertex -0.0158432 -0.0122062 0.16
endloop
endfacet
facet normal -0.810052 -0.58469 -0
outer loop
vertex -0.0169166 -0.010669 -0.16
vertex -0.0158432 -0.0122062 -0.16
vertex -0.0158432 -0.0122062 0.16
endloop
endfacet
facet normal -0.792162 -0.61031 -0
outer loop
vertex -0.0158432 -0.0122062 0.16
vertex -0.0158432 -0.0122062 -0.16
vertex -0.0146306 -0.0136362 0.16
endloop
endfacet
facet normal -0.751742 -0.657975 -0
outer loop
vertex -0.0158432 -0.0122062 -0.16
vertex -0.0146306 -0.0136362 -0.16
vertex -0.0146306 -0.0136362 0.16
endloop
endfacet
facet normal -0.731531 -0.681808 -0
outer loop
vertex -0.0146306 -0.0136362 0.16
vertex -0.0146306 -0.0136362 -0.16
vertex -0.0132894 -0.0149463 0.16
endloop
endfacet
facet normal -0.686825 -0.725478 -0
outer loop
vertex -0.0146306 -0.0136362 -0.16
vertex -0.0132894 -0.0149463 -0.16
vertex -0.0132894 -0.0149463 0.16
endloop
endfacet
facet normal -0.664471 -0.747314 -0
outer loop
vertex -0.0132894 -0.0149463 0.16
vertex -0.0132894 -0.0149463 -0.16
vertex -0.0118314 -0.016125 0.16
endloop
endfacet
facet normal -0.615872 -0.786606 -0
outer loop
vertex -0.0132894 -0.0149463 -0.16
vertex -0.0118314 -0.016125 -0.16
vertex -0.0118314 -0.016125 0.16
endloop
endfacet
facet normal -0.591572 -0.806252 -0
outer loop
vertex -0.0118314 -0.016125 0.16
vertex -0.0118314 -0.016125 -0.16
vertex -0.0102695 -0.0171621 0.16
endloop
endfacet
facet normal -0.539507 -0.840821 -0
outer loop
vertex -0.0118314 -0.016125 -0.16
vertex -0.0102695 -0.0171621 -0.16
vertex -0.0102695 -0.0171621 0.16
endloop
endfacet
facet normal -0.513474 -0.858105 -0
outer loop
vertex -0.0102695 -0.0171621 0.16
vertex -0.0102695 -0.0171621 -0.16
vertex -0.00861727 -0.0180483 0.16
endloop
endfacet
facet normal -0.458401 -0.887646 -0
outer loop
vertex -0.0102695 -0.0171621 -0.16
vertex -0.00861727 -0.0180483 -0.16
vertex -0.00861727 -0.0180483 0.16
endloop
endfacet
facet normal -0.430864 -0.902417 -0
outer loop
vertex -0.00861727 -0.0180483 0.16
vertex -0.00861727 -0.0180483 -0.16
vertex -0.00688934 -0.018776 0.16
endloop
endfacet
facet normal -0.373266 -0.926671 -0
outer loop
vertex -0.00861727 -0.0180483 -0.16
vertex -0.00688934 -0.018776 -0.16
vertex -0.00688934 -0.018776 0.16
endloop
endfacet
facet normal -0.344467 -0.938799 -0
outer loop
vertex -0.00688934 -0.018776 0.16
vertex -0.00688934 -0.018776 -0.16
vertex -0.00510086 -0.0193386 0.16
endloop
endfacet
facet normal -0.284851 -0.957553 -0
outer loop
vertex -0.00688934 -0.018776 -0.16
vertex -0.00510086 -0.0193386 -0.16
vertex -0.00510086 -0.0193386 0.16
endloop
endfacet
facet normal -0.255043 -0.96693 -0
outer loop
vertex -0.00510086 -0.0193386 0.16
vertex -0.00510086 -0.0193386 -0.16
vertex -0.00326755 -0.0197313 0.16
endloop
endfacet
facet normal -0.193932 -0.980019 -0
outer loop
vertex -0.00510086 -0.0193386 -0.16
vertex -0.00326755 -0.0197313 -0.16
vertex -0.00326755 -0.0197313 0.16
endloop
endfacet
facet normal -0.163377 -0.986564 -0
outer loop
vertex -0.00326755 -0.0197313 0.16
vertex -0.00326755 -0.0197313 -0.16
vertex -0.00140552 -0.0199506 0.16
endloop
endfacet
facet normal -0.10131 -0.993873 -0
outer loop
vertex -0.00326755 -0.0197313 -0.16
vertex -0.00140552 -0.0199506 -0.16
vertex -0.00140552 -0.0199506 0.16
endloop
endfacet
facet normal -0.0702762 -0.997528 -0
outer loop
vertex -0.00140552 -0.0199506 0.16
vertex -0.00140552 -0.0199506 -0.16
vertex 0.000468851 -0.0199945 0.16
endloop
endfacet
facet normal -0.007797 -0.998993 0
outer loop
vertex -0.00140552 -0.0199506 -0.16
vertex 0.000468851 -0.0199945 -0.16
vertex 0.000468851 -0.0199945 0.16
endloop
endfacet
facet normal 0.0234426 -0.999725 0
outer loop
vertex 0.000468851 -0.0199945 0.16
vertex 0.000468851 -0.0199945 -0.16
vertex 0.00233911 -0.0198627 0.16
endloop
endfacet
facet normal 0.0857844 -0.995333 0
outer loop
vertex 0.000468851 -0.0199945 -0.16
vertex 0.00233911 -0.0198627 -0.16
vertex 0.00233911 -0.0198627 0.16
endloop
endfacet
facet normal 0.116955 -0.993137 0
outer loop
vertex 0.00233911 -0.0198627 0.16
vertex 0.00233911 -0.0198627 -0.16
vertex 0.00418881 -0.0195564 0.16
endloop
endfacet
facet normal 0.178612 -0.982927 0
outer loop
vertex 0.00233911 -0.0198627 -0.16
vertex 0.00418881 -0.0195564 -0.16
vertex 0.00418881 -0.0195564 0.16
endloop
endfacet
facet normal 0.20944 -0.977822 0
outer loop
vertex 0.00418881 -0.0195564 0.16
vertex 0.00418881 -0.0195564 -0.16
vertex 0.00600169 -0.0190783 0.16
endloop
endfacet
facet normal 0.26987 -0.961882 0
outer loop
vertex 0.00418881 -0.0195564 -0.16
vertex 0.00600169 -0.0190783 -0.16
vertex 0.00600169 -0.0190783 0.16
endloop
endfacet
facet normal 0.300085 -0.953913 0
outer loop
vertex 0.00600169 -0.0190783 0.16
vertex 0.00600169 -0.0190783 -0.16
vertex 0.00776184 -0.0184324 0.16
endloop
endfacet
facet normal 0.358756 -0.932385 0
outer loop
vertex 0.00600169 -0.0190783 -0.16
vertex 0.00776184 -0.0184324 -0.16
vertex 0.00776184 -0.0184324 0.16
endloop
endfacet
facet normal 0.388092 -0.921621 0
outer loop
vertex 0.00776184 -0.0184324 0.16
vertex 0.00776184 -0.0184324 -0.16
vertex 0.00945377 -0.0176246 0.16
endloop
endfacet
facet normal 0.44449 -0.894693 0
outer loop
vertex 0.00776184 -0.0184324 -0.16
vertex 0.00945377 -0.0176246 -0.16
vertex 0.00945377 -0.0176246 0.16
endloop
endfacet
facet normal 0.472689 -0.88123 0
outer loop
vertex 0.00945377 -0.0176246 0.16
vertex 0.00945377 -0.0176246 -0.16
vertex 0.0110626 -0.0166619 0.16
endloop
endfacet
facet normal 0.526317 -0.849139 0
outer loop
vertex 0.00945377 -0.0176246 -0.16
vertex 0.0110626 -0.0166619 -0.16
vertex 0.0110626 -0.0166619 0.16
endloop
endfacet
facet normal 0.553131 -0.833094 0
outer loop
vertex 0.0110626 -0.0166619 0.16
vertex 0.0110626 -0.0166619 -0.16
vertex 0.0125743 -0.0155528 0.16
endloop
endfacet
facet normal 0.603519 -0.796123 0
outer loop
vertex 0.0110626 -0.0166619 -0.16
vertex 0.0125743 -0.0155528 -0.16
vertex 0.0125743 -0.0155528 0.16
endloop
endfacet
facet normal 0.628713 -0.777638 0
outer loop
vertex 0.0125743 -0.0155528 0.16
vertex 0.0125743 -0.0155528 -0.16
vertex 0.0139754 -0.0143069 0.16
endloop
endfacet
facet normal 0.675417 -0.736111 0
outer loop
vertex 0.0125743 -0.0155528 -0.16
vertex 0.0139754 -0.0143069 -0.16
vertex 0.0139754 -0.0143069 0.16
endloop
endfacet
facet normal 0.698769 -0.715347 0
outer loop
vertex 0.0139754 -0.0143069 0.16
vertex 0.0139754 -0.0143069 -0.16
vertex 0.0152537 -0.0129354 0.16
endloop
endfacet
facet normal 0.74138 -0.669629 0
outer loop
vertex 0.0139754 -0.0143069 -0.16
vertex 0.0152537 -0.0129354 -0.16
vertex 0.0152537 -0.0129354 0.16
endloop
endfacet
facet normal 0.762685 -0.64677 0
outer loop
vertex 0.0152537 -0.0129354 0.16
vertex 0.0152537 -0.0129354 -0.16
vertex 0.016398 -0.0114502 0.16
endloop
endfacet
facet normal 0.800827 -0.597263 0
outer loop
vertex 0.0152537 -0.0129354 -0.16
vertex 0.016398 -0.0114502 -0.16
vertex 0.016398 -0.0114502 0.16
endloop
endfacet
facet normal 0.819898 -0.572509 0
outer loop
vertex 0.016398 -0.0114502 0.16
vertex 0.016398 -0.0114502 -0.16
vertex 0.0173981 -0.00986434 0.16
endloop
endfacet
facet normal 0.853237 -0.519648 0
outer loop
vertex 0.016398 -0.0114502 -0.16
vertex 0.0173981 -0.00986434 -0.16
vertex 0.0173981 -0.00986434 0.16
endloop
endfacet
facet normal 0.869906 -0.493217 0
outer loop
vertex 0.0173981 -0.00986434 0.16
vertex 0.0173981 -0.00986434 -0.16
vertex 0.0182454 -0.00819181 0.16
endloop
endfacet
facet normal 0.898148 -0.437466 0
outer loop
vertex 0.0173981 -0.00986434 -0.16
vertex 0.0182454 -0.00819181 -0.16
vertex 0.0182454 -0.00819181 0.16
endloop
endfacet
facet normal 0.91227 -0.40959 0
outer loop
vertex 0.0182454 -0.00819181 0.16
vertex 0.0182454 -0.00819181 -0.16
vertex 0.0189323 -0.00644729 0.16
endloop
endfacet
facet normal 0.935167 -0.35144 0
outer loop
vertex 0.0182454 -0.00819181 -0.16
vertex 0.0189323 -0.00644729 -0.16
vertex 0.0189323 -0.00644729 0.16
endloop
endfacet
facet normal 0.946616 -0.322364 0
outer loop
vertex 0.0189323 -0.00644729 0.16
vertex 0.0189323 -0.00644729 -0.16
vertex 0.0194529 -0.00464611 0.16
endloop
endfacet
facet normal 0.963967 -0.262325 0
outer loop
vertex 0.0189323 -0.00644729 -0.16
vertex 0.0194529 -0.00464611 -0.16
vertex 0.0194529 -0.00464611 0.16
endloop
endfacet
facet normal 0.972643 -0.232305 0
outer loop
vertex 0.0194529 -0.00464611 0.16
vertex 0.0194529 -0.00464611 -0.16
vertex 0.0198025 -0.0028041 0.16
endloop
endfacet
facet normal 0.984296 -0.170905 0
outer loop
vertex 0.0194529 -0.00464611 -0.16
vertex 0.0198025 -0.0028041 -0.16
vertex 0.0198025 -0.0028041 0.16
endloop
endfacet
facet normal 0.990122 -0.140205 0
outer loop
vertex 0.0198025 -0.0028041 0.16
vertex 0.0198025 -0.0028041 -0.16
vertex 0.019978 -0.000937445 0.16
endloop
endfacet
facet normal 0.995975 -0.0779831 0
outer loop
vertex 0.0198025 -0.0028041 -0.16
vertex 0.019978 -0.000937445 -0.16
vertex 0.019978 -0.000937445 0.16
endloop
endfacet
facet normal 0.998901 -0.0468723 0
outer loop
vertex 0.019978 -0.000937445 0.16
vertex 0.019978 -0.000937445 -0.16
vertex 0.019978 0.000937445 0.16
endloop
endfacet
facet normal 0.998901 0.0156241 0
outer loop
vertex 0.019978 -0.000937445 -0.16
vertex 0.019978 0.000937445 -0.16
vertex 0.019978 0.000937445 0.16
endloop
endfacet
facet normal 0.998901 0.0468723 0
outer loop
vertex 0.019978 0.000937445 0.16
vertex 0.019978 0.000937445 -0.16
vertex 0.0198025 0.0028041 0.16
endloop
endfacet
facet normal 0.993049 0.109094 0
outer loop
vertex 0.019978 0.000937445 -0.16
vertex 0.0198025 0.0028041 -0.16
vertex 0.0198025 0.0028041 0.16
endloop
endfacet
facet normal 0.990122 0.140205 0
outer loop
vertex 0.0198025 0.0028041 0.16
vertex 0.0198025 0.0028041 -0.16
vertex 0.0194529 0.00464611 0.16
endloop
endfacet
facet normal 0.978469 0.201605 0
outer loop
vertex 0.0198025 0.0028041 -0.16
vertex 0.0194529 0.00464611 -0.16
vertex 0.0194529 0.00464611 0.16
endloop
endfacet
facet normal 0.972643 0.232305 0
outer loop
vertex 0.0194529 0.00464611 0.16
vertex 0.0194529 0.00464611 -0.16
vertex 0.0189323 0.00644729 0.16
endloop
endfacet
facet normal 0.955291 0.292345 0
outer loop
vertex 0.0194529 0.00464611 -0.16
vertex 0.0189323 0.00644729 -0.16
vertex 0.0189323 0.00644729 0.16
endloop
endfacet
facet normal 0.946616 0.322364 0
outer loop
vertex 0.0189323 0.00644729 0.16
vertex 0.0189323 0.00644729 -0.16
vertex 0.0182454 0.00819181 0.16
endloop
endfacet
facet normal 0.923718 0.380515 0
outer loop
vertex 0.0189323 0.00644729 -0.16
vertex 0.0182454 0.00819181 -0.16
vertex 0.0182454 0.00819181 0.16
endloop
endfacet
facet normal 0.91227 0.40959 0
outer loop
vertex 0.0182454 0.00819181 0.16
vertex 0.0182454 0.00819181 -0.16
vertex 0.0173981 0.00986434 0.16
endloop
endfacet
facet normal 0.884027 0.465341 0
outer loop
vertex 0.0182454 0.00819181 -0.16
vertex 0.0173981 0.00986434 -0.16
vertex 0.0173981 0.00986434 0.16
endloop
endfacet
facet normal 0.869906 0.493217 0
outer loop
vertex 0.0173981 0.00986434 0.16
vertex 0.0173981 0.00986434 -0.16
vertex 0.016398 0.0114502 0.16
endloop
endfacet
facet normal 0.836568 0.546078 0
outer loop
vertex 0.0173981 0.00986434 -0.16
vertex 0.016398 0.0114502 -0.16
vertex 0.016398 0.0114502 0.16
endloop
endfacet
facet normal 0.819898 0.572509 0
outer loop
vertex 0.016398 0.0114502 0.16
vertex 0.016398 0.0114502 -0.16
vertex 0.0152537 0.0129354 0.16
endloop
endfacet
facet normal 0.781756 0.622016 0
outer loop
vertex 0.016398 0.0114502 -0.16
vertex 0.0152537 0.0129354 -0.16
vertex 0.0152537 0.0129354 0.16
endloop
endfacet
facet normal 0.762685 0.64677 0
outer loop
vertex 0.0152537 0.0129354 0.16
vertex 0.0152537 0.0129354 -0.16
vertex 0.0139754 0.0143069 0.16
endloop
endfacet
facet normal 0.720075 0.692488 0
outer loop
vertex 0.0152537 0.0129354 -0.16
vertex 0.0139754 0.0143069 -0.16
vertex 0.0139754 0.0143069 0.16
endloop
endfacet
facet normal 0.698769 0.715347 0
outer loop
vertex 0.0139754 0.0143069 0.16
vertex 0.0139754 0.0143069 -0.16
vertex 0.0125743 0.0155528 0.16
endloop
endfacet
facet normal 0.652065 0.756874 0
outer loop
vertex 0.0139754 0.0143069 -0.16
vertex 0.0125743 0.0155528 -0.16
vertex 0.0125743 0.0155528 0.16
endloop
endfacet
facet normal 0.628713 0.777638 0
outer loop
vertex 0.0125743 0.0155528 0.16
vertex 0.0125743 0.0155528 -0.16
vertex 0.0110626 0.0166619 0.16
endloop
endfacet
facet normal 0.578325 0.814609 0
outer loop
vertex 0.0125743 0.0155528 -0.16
vertex 0.0110626 0.0166619 -0.16
vertex 0.0110626 0.0166619 0.16
endloop
endfacet
facet normal 0.553131 0.833094 0
outer loop
vertex 0.0110626 0.0166619 0.16
vertex 0.0110626 0.0166619 -0.16
vertex 0.00945377 0.0176246 0.16
endloop
endfacet
facet normal 0.499503 0.865184 0
outer loop
vertex 0.0110626 0.0166619 -0.16
vertex 0.00945377 0.0176246 -0.16
vertex 0.00945377 0.0176246 0.16
endloop
endfacet
facet normal 0.472689 0.88123 0
outer loop
vertex 0.00945377 0.0176246 0.16
vertex 0.00945377 0.0176246 -0.16
vertex 0.00776184 0.0184324 0.16
endloop
endfacet
facet normal 0.416291 0.908157 0
outer loop
vertex 0.00945377 0.0176246 -0.16
vertex 0.00776184 0.0184324 -0.16
vertex 0.00776184 0.0184324 0.16
endloop
endfacet
facet normal 0.388092 0.921621 0
outer loop
vertex 0.00776184 0.0184324 0.16
vertex 0.00776184 0.0184324 -0.16
vertex 0.00600169 0.0190783 0.16
endloop
endfacet
facet normal 0.32942 0.943149 0
outer loop
vertex 0.00776184 0.0184324 -0.16
vertex 0.00600169 0.0190783 -0.16
vertex 0.00600169 0.0190783 0.16
endloop
endfacet
facet normal 0.300085 0.953913 0
outer loop
vertex 0.00600169 0.0190783 0.16
vertex 0.00600169 0.0190783 -0.16
vertex 0.00418881 0.0195564 0.16
endloop
endfacet
facet normal 0.239655 0.969852 0
outer loop
vertex 0.00600169 0.0190783 -0.16
vertex 0.00418881 0.0195564 -0.16
vertex 0.00418881 0.0195564 0.16
endloop
endfacet
facet normal 0.20944 0.977822 0
outer loop
vertex 0.00418881 0.0195564 0.16
vertex 0.00418881 0.0195564 -0.16
vertex 0.00233911 0.0198627 0.16
endloop
endfacet
facet normal 0.147784 0.988032 0
outer loop
vertex 0.00418881 0.0195564 -0.16
vertex 0.00233911 0.0198627 -0.16
vertex 0.00233911 0.0198627 0.16
endloop
endfacet
facet normal 0.116955 0.993137 0
outer loop
vertex 0.00233911 0.0198627 0.16
vertex 0.00233911 0.0198627 -0.16
vertex 0.000468851 0.0199945 0.16
endloop
endfacet
facet normal 0.0546135 0.997529 0
outer loop
vertex 0.00233911 0.0198627 -0.16
vertex 0.000468851 0.0199945 -0.16
vertex 0.000468851 0.0199945 0.16
endloop
endfacet
facet normal 0.0234426 0.999725 0
outer loop
vertex 0.000468851 0.0199945 0.16
vertex 0.000468851 0.0199945 -0.16
vertex -0.00140552 0.0199506 0.16
endloop
endfacet
facet normal -0.0390366 0.99826 0
outer loop
vertex 0.000468851 0.0199945 -0.16
vertex -0.00140552 0.0199506 -0.16
vertex -0.00140552 0.0199506 0.16
endloop
endfacet
facet normal -0.0702762 0.997528 0
outer loop
vertex -0.00140552 0.0199506 0.16
vertex -0.00140552 0.0199506 -0.16
vertex -0.00326755 0.0197313 0.16
endloop
endfacet
facet normal -0.132344 0.990218 0
outer loop
vertex -0.00140552 0.0199506 -0.16
vertex -0.00326755 0.0197313 -0.16
vertex -0.00326755 0.0197313 0.16
endloop
endfacet
facet normal -0.163377 0.986564 0
outer loop
vertex -0.00326755 0.0197313 0.16
vertex -0.00326755 0.0197313 -0.16
vertex -0.00510086 0.0193386 0.16
endloop
endfacet
facet normal -0.224488 0.973474 0
outer loop
vertex -0.00326755 0.0197313 -0.16
vertex -0.00510086 0.0193386 -0.16
vertex -0.00510086 0.0193386 0.16
endloop
endfacet
facet normal -0.255043 0.96693 0
outer loop
vertex -0.00510086 0.0193386 0.16
vertex -0.00510086 0.0193386 -0.16
vertex -0.00688934 0.018776 0.16
endloop
endfacet
facet normal -0.314659 0.948176 0
outer loop
vertex -0.00510086 0.0193386 -0.16
vertex -0.00688934 0.018776 -0.16
vertex -0.00688934 0.018776 0.16
endloop
endfacet
facet normal -0.344467 0.938799 0
outer loop
vertex -0.00688934 0.018776 0.16
vertex -0.00688934 0.018776 -0.16
vertex -0.00861727 0.0180483 0.16
endloop
endfacet
facet normal -0.402065 0.914544 0
outer loop
vertex -0.00688934 0.018776 -0.16
vertex -0.00861727 0.0180483 -0.16
vertex -0.00861727 0.0180483 0.16
endloop
endfacet
facet normal -0.430864 0.902417 0
outer loop
vertex -0.00861727 0.0180483 0.16
vertex -0.00861727 0.0180483 -0.16
vertex -0.0102695 0.0171621 0.16
endloop
endfacet
facet normal -0.485937 0.872876 0
outer loop
vertex -0.00861727 0.0180483 -0.16
vertex -0.0102695 0.0171621 -0.16
vertex -0.0102695 0.0171621 0.16
endloop
endfacet
facet normal -0.513474 0.858105 0
outer loop
vertex -0.0102695 0.0171621 0.16
vertex -0.0102695 0.0171621 -0.16
vertex -0.0118314 0.016125 0.16
endloop
endfacet
facet normal -0.56554 0.823536 0
outer loop
vertex -0.0102695 0.0171621 -0.16
vertex -0.0118314 0.016125 -0.16
vertex -0.0118314 0.016125 0.16
endloop
endfacet
facet normal -0.591572 0.806252 0
outer loop
vertex -0.0118314 0.016125 0.16
vertex -0.0118314 0.016125 -0.16
vertex -0.0132894 0.0149463 0.16
endloop
endfacet
facet normal -0.640172 0.76696 0
outer loop
vertex -0.0118314 0.016125 -0.16
vertex -0.0132894 0.0149463 -0.16
vertex -0.0132894 0.0149463 0.16
endloop
endfacet
facet normal -0.664472 0.747314 0
outer loop
vertex -0.0132894 0.0149463 0.16
vertex -0.0132894 0.0149463 -0.16
vertex -0.0146306 0.0136362 0.16
endloop
endfacet
facet normal -0.709178 0.703643 0
outer loop
vertex -0.0132894 0.0149463 -0.16
vertex -0.0146306 0.0136362 -0.16
vertex -0.0146306 0.0136362 0.16
endloop
endfacet
facet normal -0.731531 0.681808 0
outer loop
vertex -0.0146306 0.0136362 0.16
vertex -0.0146306 0.0136362 -0.16
vertex -0.0158432 0.0122062 0.16
endloop
endfacet
facet normal -0.771952 0.634143 0
outer loop
vertex -0.0146306 0.0136362 -0.16
vertex -0.0158432 0.0122062 -0.16
vertex -0.0158432 0.0122062 0.16
endloop
endfacet
facet normal -0.792162 0.61031 0
outer loop
vertex -0.0158432 0.0122062 0.16
vertex -0.0158432 0.0122062 -0.16
vertex -0.0169166 0.010669 0.16
endloop
endfacet
facet normal -0.827942 0.55907 0
outer loop
vertex -0.0158432 0.0122062 -0.16
vertex -0.0169166 0.010669 -0.16
vertex -0.0169166 0.010669 0.16
endloop
endfacet
facet normal -0.845832 0.533449 0
outer loop
vertex -0.0169166 0.010669 0.16
vertex -0.0169166 0.010669 -0.16
vertex -0.0178414 0.00903801 0.16
endloop
endfacet
facet normal -0.876656 0.479083 0
outer loop
vertex -0.0169166 0.010669 -0.16
vertex -0.0178414 0.00903801 -0.16
vertex -0.0178414 0.00903801 0.16
endloop
endfacet
facet normal -0.892068 0.4519 0
outer loop
vertex -0.0178414 0.00903801 0.16
vertex -0.0178414 0.00903801 -0.16
vertex -0.0186093 0.0073276 0.16
endloop
endfacet
facet normal -0.917666 0.394887 0
outer loop
vertex -0.0178414 0.00903801 -0.16
vertex -0.0186093 0.0073276 -0.16
vertex -0.0186093 0.0073276 0.16
endloop
endfacet
facet normal -0.930465 0.36638 0
outer loop
vertex -0.0186093 0.0073276 0.16
vertex -0.0186093 0.0073276 -0.16
vertex -0.0192137 0.0055528 0.16
endloop
endfacet
facet normal -0.950612 0.30722 0
outer loop
vertex -0.0186093 0.0073276 -0.16
vertex -0.0192137 0.0055528 -0.16
vertex -0.0192137 0.0055528 0.16
endloop
endfacet
facet normal -0.960685 0.27764 0
outer loop
vertex -0.0192137 0.0055528 0.16
vertex -0.0192137 0.0055528 -0.16
vertex -0.0196493 0.0037292 0.16
endloop
endfacet
facet normal -0.975203 0.216853 0
outer loop
vertex -0.0192137 0.0055528 -0.16
vertex -0.0196493 0.0037292 -0.16
vertex -0.0196493 0.0037292 0.16
endloop
endfacet
facet normal -0.982463 0.18646 0
outer loop
vertex -0.0196493 0.0037292 0.16
vertex -0.0196493 0.0037292 -0.16
vertex -0.02 1.22814e-15 0.16
endloop
endfacet
facet normal -0.994154 0.0621533 0
outer loop
vertex -0.0196493 0.0037292 -0.16
vertex -0.02 1.22814e-15 -0.16
vertex -0.02 1.22814e-15 0.16
endloop
endfacet
facet normal -1 -0 -0
outer loop
vertex -0.02 1.22814e-15 0.16
vertex -0.02 1.22814e-15 -0.16
vertex -0.02 -2.44921e-18 0.16
endloop
endfacet
facet normal -1 -0 -0
outer loop
vertex -0.02 1.22814e-15 -0.16
vertex -0.02 -2.44921e-18 -0.16
vertex -0.02 -2.44921e-18 0.16
endloop
endfacet
facet normal 0 0 -1
outer loop
vertex -0.02 -2.44921e-18 -0.16
vertex -3.12458e-14 -3.82639e-30 -0.16
vertex -0.0196493 -0.0037292 -0.16
endloop
endfacet
facet normal 0 0 -1
outer loop
vertex -3.12458e-14 -3.82639e-30 -0.16
vertex -3.06979e-14 -5.8261e-15 -0.16
vertex -0.0196493 -0.0037292 -0.16
endloop
endfacet
facet normal 0 0 -1
outer loop
vertex -0.0196493 -0.0037292 -0.16
vertex -3.06979e-14 -5.8261e-15 -0.16
vertex -0.0192137 -0.0055528 -0.16
endloop
endfacet
facet normal 0 0 -1
outer loop
vertex -3.06979e-14 -5.8261e-15 -0.16
vertex -3.00174e-14 -8.67509e-15 -0.16
vertex -0.0192137 -0.0055528 -0.16
endloop
endfacet
facet normal 0 0 -1
outer loop
vertex -0.0192137 -0.0055528 -0.16
vertex -3.00174e-14 -8.67509e-15 -0.16
vertex -0.0186093 -0.0073276 -0.16
endloop
endfacet
facet normal 0 0 -1
outer loop
vertex -3.00174e-14 -8.67509e-15 -0.16
vertex -2.90732e-14 -1.14479e-14 -0.16
vertex -0.0186093 -0.0073276 -0.16
endloop
endfacet
facet normal 0 0 -1
outer loop
vertex -0.0186093 -0.0073276 -0.16
vertex -2.90732e-14 -1.14479e-14 -0.16
vertex -0.0178414 -0.00903801 -0.16
endloop
endfacet
facet normal 0 0 -1
outer loop
vertex -2.90732e-14 -1.14479e-14 -0.16
vertex -2.78734e-14 -1.412e-14 -0.16
vertex -0.0178414 -0.00903801 -0.16
endloop
endfacet
facet normal 0 0 -1
outer loop
vertex -0.0178414 -0.00903801 -0.16
vertex -2.78734e-14 -1.412e-14 -0.16
vertex -0.0169166 -0.010669 -0.16
endloop
endfacet
facet normal 0 0 -1
outer loop
vertex -2.78734e-14 -1.412e-14 -0.16
vertex -2.64287e-14 -1.66681e-14 -0.16
vertex -0.0169166 -0.010669 -0.16
endloop
endfacet
facet normal 0 0 -1
outer loop
vertex -0.0169166 -0.010669 -0.16
vertex -2.64287e-14 -1.66681e-14 -0.16
vertex -0.0158432 -0.0122062 -0.16
endloop
endfacet
facet normal 0 0 -1
outer loop
vertex -2.64287e-14 -1.66681e-14 -0.16
vertex -2.47518e-14 -1.90697e-14 -0.16
vertex -0.0158432 -0.0122062 -0.16
endloop
endfacet
facet normal 0 0 -1
outer loop
vertex -0.0158432 -0.0122062 -0.16
vertex -2.47518e-14 -1.90697e-14 -0.16
vertex -0.0146306 -0.0136362 -0.16
endloop
endfacet
facet normal 0 0 -1
outer loop
vertex -2.47518e-14 -1.90697e-14 -0.16
vertex -2.28573e-14 -2.13037e-14 -0.16
vertex -0.0146306 -0.0136362 -0.16
endloop
endfacet
facet normal 0 0 -1
outer loop
vertex -0.0146306 -0.0136362 -0.16
vertex -2.28573e-14 -2.13037e-14 -0.16
vertex -0.0132894 -0.0149463 -0.16
endloop
endfacet
facet normal 0 0 -1
outer loop
vertex -2.28573e-14 -2.13037e-14 -0.16
vertex -2.0762e-14 -2.33504e-14 -0.16
vertex -0.0132894 -0.0149463 -0.16
endloop
endfacet
facet normal 0 0 -1
outer loop
vertex -0.0132894 -0.0149463 -0.16
vertex -2.0762e-14 -2.33504e-14 -0.16
vertex -0.0118314 -0.016125 -0.16
endloop
endfacet
facet normal 0 0 -1
outer loop
vertex -2.0762e-14 -2.33504e-14 -0.16
vertex -1.84842e-14 -2.5192e-14 -0.16
vertex -0.0118314 -0.016125 -0.16
endloop
endfacet
facet normal 0 0 -1
outer loop
vertex -0.0118314 -0.016125 -0.16
vertex -1.84842e-14 -2.5192e-14 -0.16
vertex -0.0102695 -0.0171621 -0.16
endloop
endfacet
facet normal 0 0 -1
outer loop
vertex -1.84842e-14 -2.5192e-14 -0.16
vertex -1.60439e-14 -2.68122e-14 -0.16
vertex -0.0102695 -0.0171621 -0.16
endloop
endfacet
facet normal 0 0 -1
outer loop
vertex -0.0102695 -0.0171621 -0.16
vertex -1.60439e-14 -2.68122e-14 -0.16
vertex -0.00861727 -0.0180483 -0.16
endloop
endfacet
facet normal 0 0 -1
outer loop
vertex -1.60439e-14 -2.68122e-14 -0.16
vertex -1.34627e-14 -2.81968e-14 -0.16
vertex -0.00861727 -0.0180483 -0.16
endloop
endfacet
facet normal 0 0 -1
outer loop
vertex -0.00861727 -0.0180483 -0.16
vertex -1.34627e-14 -2.81968e-14 -0.16
vertex -0.00688934 -0.018776 -0.16
endloop
endfacet
facet normal 0 0 -1
outer loop
vertex -1.34627e-14 -2.81968e-14 -0.16
vertex -1.07632e-14 -2.93335e-14 -0.16
vertex -0.00688934 -0.018776 -0.16
endloop
endfacet
facet normal 0 0 -1
outer loop
vertex -0.00688934 -0.018776 -0.16
vertex -1.07632e-14 -2.93335e-14 -0.16
vertex -0.00510086 -0.0193386 -0.16
endloop
endfacet
facet normal 0 0 -1
outer loop
vertex -1.07632e-14 -2.93335e-14 -0.16
vertex -7.96903e-15 -3.02125e-14 -0.16
vertex -0.00510086 -0.0193386 -0.16
endloop
endfacet
facet normal 0 0 -1
outer loop
vertex -0.00510086 -0.0193386 -0.16
vertex -7.96903e-15 -3.02125e-14 -0.16
vertex -0.00326755 -0.0197313 -0.16
endloop
endfacet
facet normal 0 0 -1
outer loop
vertex -7.96903e-15 -3.02125e-14 -0.16
vertex -5.10486e-15 -3.0826e-14 -0.16
vertex -0.00326755 -0.0197313 -0.16
endloop
endfacet
facet normal 0 0 -1
outer loop
vertex -0.00326755 -0.0197313 -0.16
vertex -5.10486e-15 -3.0826e-14 -0.16
vertex -0.00140552 -0.0199506 -0.16
endloop
endfacet
facet normal 0 0 -1
outer loop
vertex -5.10486e-15 -3.0826e-14 -0.16
vertex -2.19584e-15 -3.11686e-14 -0.16
vertex -0.00140552 -0.0199506 -0.16
endloop
endfacet
facet normal 0 0 -1
outer loop
vertex -0.00140552 -0.0199506 -0.16
vertex -2.19584e-15 -3.11686e-14 -0.16
vertex 0.000468851 -0.0199945 -0.16
endloop
endfacet
facet normal 0 0 -1
outer loop
vertex -2.19584e-15 -3.11686e-14 -0.16
vertex 7.32483e-16 -3.12373e-14 -0.16
vertex 0.000468851 -0.0199945 -0.16
endloop
endfacet
facet normal 0 0 -1
outer loop
vertex 0.000468851 -0.0199945 -0.16
vertex 7.32483e-16 -3.12373e-14 -0.16
vertex 0.00233911 -0.0198627 -0.16
endloop
endfacet
facet normal 0 0 -1
outer loop
vertex 7.32483e-16 -3.12373e-14 -0.16
vertex 3.65437e-15 -3.10314e-14 -0.16
vertex 0.00233911 -0.0198627 -0.16
endloop
endfacet
facet normal 0 0 -1
outer loop
vertex 0.00233911 -0.0198627 -0.16
vertex 3.65437e-15 -3.10314e-14 -0.16
vertex 0.00418881 -0.0195564 -0.16
endloop
endfacet
facet normal 0 0 -1
outer loop
vertex 3.65437e-15 -3.10314e-14 -0.16
vertex 6.54414e-15 -3.05529e-14 -0.16
vertex 0.00418881 -0.0195564 -0.16
endloop
endfacet
facet normal 0 0 -1
outer loop
vertex 0.00418881 -0.0195564 -0.16
vertex 6.54414e-15 -3.05529e-14 -0.16
vertex 0.00600169 -0.0190783 -0.16
endloop
endfacet
facet normal 0 0 -1
outer loop
vertex 6.54414e-15 -3.05529e-14 -0.16
vertex 9.3764e-15 -2.98058e-14 -0.16
vertex 0.00600169 -0.0190783 -0.16
endloop
endfacet
facet normal 0 0 -1
outer loop
vertex 0.00600169 -0.0190783 -0.16
vertex 9.3764e-15 -2.98058e-14 -0.16
vertex 0.00776184 -0.0184324 -0.16
endloop
endfacet
facet normal 0 0 -1
outer loop
vertex 9.3764e-15 -2.98058e-14 -0.16
vertex 1.21263e-14 -2.87968e-14 -0.16
vertex 0.00776184 -0.0184324 -0.16
endloop
endfacet
facet normal 0 0 -1
outer loop
vertex 0.00776184 -0.0184324 -0.16
vertex 1.21263e-14 -2.87968e-14 -0.16
vertex 0.00945377 -0.0176246 -0.16
endloop
endfacet
facet normal 0 0 -1
outer loop
vertex 1.21263e-14 -2.87968e-14 -0.16
vertex 1.47695e-14 -2.75348e-14 -0.16
vertex 0.00945377 -0.0176246 -0.16
endloop
endfacet
facet normal 0 0 -1
outer loop
vertex 0.00945377 -0.0176246 -0.16
vertex 1.47695e-14 -2.75348e-14 -0.16
vertex 0.0110626 -0.0166619 -0.16
endloop
endfacet
facet normal 0 0 -1
outer loop
vertex 1.47695e-14 -2.75348e-14 -0.16
vertex 1.7283e-14 -2.60307e-14 -0.16
vertex 0.0110626 -0.0166619 -0.16
endloop
endfacet
facet normal 0 0 -1
outer loop
vertex 0.0110626 -0.0166619 -0.16
vertex 1.7283e-14 -2.60307e-14 -0.16
vertex 0.0125743 -0.0155528 -0.16
endloop
endfacet
facet normal 0 0 -1
outer loop
vertex 1.7283e-14 -2.60307e-14 -0.16
vertex 1.96447e-14 -2.42979e-14 -0.16
vertex 0.0125743 -0.0155528 -0.16
endloop
endfacet
facet normal 0 0 -1
outer loop
vertex 0.0125743 -0.0155528 -0.16
vertex 1.96447e-14 -2.42979e-14 -0.16
vertex 0.0139754 -0.0143069 -0.16
endloop
endfacet
facet normal 0 0 -1
outer loop
vertex 1.96447e-14 -2.42979e-14 -0.16
vertex 2.18336e-14 -2.23516e-14 -0.16
vertex 0.0139754 -0.0143069 -0.16
endloop
endfacet
facet normal 0 0 -1
outer loop
vertex 0.0139754 -0.0143069 -0.16
vertex 2.18336e-14 -2.23516e-14 -0.16
vertex 0.0152537 -0.0129354 -0.16
endloop
endfacet
facet normal 0 0 -1
outer loop
vertex 2.18336e-14 -2.23516e-14 -0.16
vertex 2.38307e-14 -2.02089e-14 -0.16
vertex 0.0152537 -0.0129354 -0.16
endloop
endfacet
facet normal 0 0 -1
outer loop
vertex 0.0152537 -0.0129354 -0.16
vertex 2.38307e-14 -2.02089e-14 -0.16
vertex 0.016398 -0.0114502 -0.16
endloop
endfacet
facet normal 0 0 -1
outer loop
vertex 2.38307e-14 -2.02089e-14 -0.16
vertex 2.56184e-14 -1.78885e-14 -0.16
vertex 0.016398 -0.0114502 -0.16
endloop
endfacet
facet normal 0 0 -1
outer loop
vertex 0.016398 -0.0114502 -0.16
vertex 2.56184e-14 -1.78885e-14 -0.16
vertex 0.0173981 -0.00986434 -0.16
endloop
endfacet
facet normal 0 0 -1
outer loop
vertex 2.56184e-14 -1.78885e-14 -0.16
vertex 2.7181e-14 -1.5411e-14 -0.16
vertex 0.0173981 -0.00986434 -0.16
endloop
endfacet
facet normal 0 0 -1
outer loop
vertex 0.0173981 -0.00986434 -0.16
vertex 2.7181e-14 -1.5411e-14 -0.16
vertex 0.0182454 -0.00819181 -0.16
endloop
endfacet
facet normal 0 0 -1
outer loop
vertex 2.7181e-14 -1.5411e-14 -0.16
vertex 2.85046e-14 -1.2798e-14 -0.16
vertex 0.0182454 -0.00819181 -0.16
endloop
endfacet
facet normal 0 0 -1
outer loop
vertex 0.0182454 -0.00819181 -0.16
vertex 2.85046e-14 -1.2798e-14 -0.16
vertex 0.0189323 -0.00644729 -0.16
endloop
endfacet
facet normal 0 0 -1
outer loop
vertex 2.85046e-14 -1.2798e-14 -0.16
vertex 2.95778e-14 -1.00725e-14 -0.16
vertex 0.0189323 -0.00644729 -0.16
endloop
endfacet
facet normal 0 0 -1
outer loop
vertex 0.0189323 -0.00644729 -0.16
vertex 2.95778e-14 -1.00725e-14 -0.16
vertex 0.0194529 -0.00464611 -0.16
endloop
endfacet
facet normal 0 0 -1
outer loop
vertex 2.95778e-14 -1.00725e-14 -0.16
vertex 3.0391e-14 -7.25858e-15 -0.16
vertex 0.0194529 -0.00464611 -0.16
endloop
endfacet
facet normal 0 0 -1
outer loop
vertex 0.0194529 -0.00464611 -0.16
vertex 3.0391e-14 -7.25858e-15 -0.16
vertex 0.0198025 -0.0028041 -0.16
endloop
endfacet
facet normal 0 0 -1
outer loop
vertex 3.0391e-14 -7.25858e-15 -0.16
vertex 3.09372e-14 -4.38082e-15 -0.16
vertex 0.0198025 -0.0028041 -0.16
endloop
endfacet
facet normal 0 0 -1
outer loop
vertex 0.0198025 -0.0028041 -0.16
vertex 3.09372e-14 -4.38082e-15 -0.16
vertex 0.019978 -0.000937445 -0.16
endloop
endfacet
facet normal 0 0 -1
outer loop
vertex 3.09372e-14 -4.38082e-15 -0.16
vertex 3.12115e-14 -1.46456e-15 -0.16
vertex 0.019978 -0.000937445 -0.16
endloop
endfacet
facet normal 0 0 -1
outer loop
vertex 0.019978 -0.000937445 -0.16
vertex 3.12115e-14 -1.46456e-15 -0.16
vertex 0.019978 0.000937445 -0.16
endloop
endfacet
facet normal 0 0 -1
outer loop
vertex 3.12115e-14 -1.46456e-15 -0.16
vertex 3.12115e-14 1.46456e-15 -0.16
vertex 0.019978 0.000937445 -0.16
endloop
endfacet
facet normal 0 0 -1
outer loop
vertex 0.019978 0.000937445 -0.16
vertex 3.12115e-14 1.46456e-15 -0.16
vertex 0.0198025 0.0028041 -0.16
endloop
endfacet
facet normal 0 0 -1
outer loop
vertex 3.12115e-14 1.46456e-15 -0.16
vertex 3.09372e-14 4.38082e-15 -0.16
vertex 0.0198025 0.0028041 -0.16
endloop
endfacet
facet normal 0 0 -1
outer loop
vertex 0.0198025 0.0028041 -0.16
vertex 3.09372e-14 4.38082e-15 -0.16
vertex 0.0194529 0.00464611 -0.16
endloop
endfacet
facet normal 0 0 -1
outer loop
vertex 3.09372e-14 4.38082e-15 -0.16
vertex 3.0391e-14 7.25858e-15 -0.16
vertex 0.0194529 0.00464611 -0.16
endloop
endfacet
facet normal 0 0 -1
outer loop
vertex 0.0194529 0.00464611 -0.16
vertex 3.0391e-14 7.25858e-15 -0.16
vertex 0.0189323 0.00644729 -0.16
endloop
endfacet
facet normal 0 0 -1
outer loop
vertex 3.0391e-14 7.25858e-15 -0.16
vertex 2.95778e-14 1.00725e-14 -0.16
vertex 0.0189323 0.00644729 -0.16
endloop
endfacet
facet normal 0 0 -1
outer loop
vertex 0.0189323 0.00644729 -0.16
vertex 2.95778e-14 1.00725e-14 -0.16
vertex 0.0182454 0.00819181 -0.16
endloop
endfacet
facet normal 0 0 -1
outer loop
vertex 2.95778e-14 1.00725e-14 -0.16
vertex 2.85046e-14 1.2798e-14 -0.16
vertex 0.0182454 0.00819181 -0.16
endloop
endfacet
facet normal 0 0 -1
outer loop
vertex 0.0182454 0.00819181 -0.16
vertex 2.85046e-14 1.2798e-14 -0.16
vertex 0.0173981 0.00986434 -0.16
endloop
endfacet
facet normal 0 0 -1
outer loop
vertex 2.85046e-14 1.2798e-14 -0.16
vertex 2.7181e-14 1.5411e-14 -0.16
vertex 0.0173981 0.00986434 -0.16
endloop
endfacet
facet normal 0 0 -1
outer loop
vertex 0.0173981 0.00986434 -0.16
vertex 2.7181e-14 1.5411e-14 -0.16
vertex 0.016398 0.0114502 -0.16
endloop
endfacet
facet normal 0 0 -1
outer loop
vertex 2.7181e-14 1.5411e-14 -0.16
vertex 2.56184e-14 1.78885e-14 -0.16
vertex 0.016398 0.0114502 -0.16
endloop
endfacet
facet normal 0 0 -1
outer loop
vertex 0.016398 0.0114502 -0.16
vertex 2.56184e-14 1.78885e-14 -0.16
vertex 0.0152537 0.0129354 -0.16
endloop
endfacet
facet normal 0 0 -1
outer loop
vertex 2.56184e-14 1.78885e-14 -0.16
vertex 2.38307e-14 2.02089e-14 -0.16
vertex 0.0152537 0.0129354 -0.16
endloop
endfacet
facet normal 0 0 -1
outer loop
vertex 0.0152537 0.0129354 -0.16
vertex 2.38307e-14 2.02089e-14 -0.16
vertex 0.0139754 0.0143069 -0.16
endloop
endfacet
facet normal 0 0 -1
outer loop
vertex 2.38307e-14 2.02089e-14 -0.16
vertex 2.18336e-14 2.23516e-14 -0.16
vertex 0.0139754 0.0143069 -0.16
endloop
endfacet
facet normal 0 0 -1
outer loop
vertex 0.0139754 0.0143069 -0.16
vertex 2.18336e-14 2.23516e-14 -0.16
vertex 0.0125743 0.0155528 -0.16
endloop
endfacet
facet normal 0 0 -1
outer loop
vertex 2.18336e-14 2.23516e-14 -0.16
vertex 1.96447e-14 2.42979e-14 -0.16
vertex 0.0125743 0.0155528 -0.16
endloop
endfacet
facet normal 0 0 -1
outer loop
vertex 0.0125743 0.0155528 -0.16
vertex 1.96447e-14 2.42979e-14 -0.16
vertex 0.0110626 0.0166619 -0.16
endloop
endfacet
facet normal 0 0 -1
outer loop
vertex 1.96447e-14 2.42979e-14 -0.16
vertex 1.7283e-14 2.60307e-14 -0.16
vertex 0.0110626 0.0166619 -0.16
endloop
endfacet
facet normal 0 0 -1
outer loop
vertex 0.0110626 0.0166619 -0.16
vertex 1.7283e-14 2.60307e-14 -0.16
vertex 0.00945377 0.0176246 -0.16
endloop
endfacet
facet normal 0 0 -1
outer loop
vertex 1.7283e-14 2.60307e-14 -0.16
vertex 1.47695e-14 2.75348e-14 -0.16
vertex 0.00945377 0.0176246 -0.16
endloop
endfacet
facet normal 0 0 -1
outer loop
vertex 0.00945377 0.0176246 -0.16
vertex 1.47695e-14 2.75348e-14 -0.16
vertex 0.00776184 0.0184324 -0.16
endloop
endfacet
facet normal 0 0 -1
outer loop
vertex 1.47695e-14 2.75348e-14 -0.16
vertex 1.21263e-14 2.87968e-14 -0.16
vertex 0.00776184 0.0184324 -0.16
endloop
endfacet
facet normal 0 0 -1
outer loop
vertex 0.00776184 0.0184324 -0.16
vertex 1.21263e-14 2.87968e-14 -0.16
vertex 0.00600169 0.0190783 -0.16
endloop
endfacet
facet normal 0 0 -1
outer loop
vertex 1.21263e-14 2.87968e-14 -0.16
vertex 9.3764e-15 2.98058e-14 -0.16
vertex 0.00600169 0.0190783 -0.16
endloop
endfacet
facet normal 0 0 -1
outer loop
vertex 0.00600169 0.0190783 -0.16
vertex 9.3764e-15 2.98058e-14 -0.16
vertex 0.00418881 0.0195564 -0.16
endloop
endfacet
facet normal 0 0 -1
outer loop
vertex 9.3764e-15 2.98058e-14 -0.16
vertex 6.54414e-15 3.05529e-14 -0.16
vertex 0.00418881 0.0195564 -0.16
endloop
endfacet
facet normal 0 0 -1
outer loop
vertex 0.00418881 0.0195564 -0.16
vertex 6.54414e-15 3.05529e-14 -0.16
vertex 0.00233911 0.0198627 -0.16
endloop
endfacet
facet normal 0 0 -1
outer loop
vertex 6.54414e-15 3.05529e-14 -0.16
vertex 3.65437e-15 3.10314e-14 -0.16
vertex 0.00233911 0.0198627 -0.16
endloop
endfacet
facet normal 0 0 -1
outer loop
vertex 0.00233911 0.0198627 -0.16
vertex 3.65437e-15 3.10314e-14 -0.16
vertex 0.000468851 0.0199945 -0.16
endloop
endfacet
facet normal 0 0 -1
outer loop
vertex 3.65437e-15 3.10314e-14 -0.16
vertex 7.32483e-16 3.12373e-14 -0.16
vertex 0.000468851 0.0199945 -0.16
endloop
endfacet
facet normal 0 0 -1
outer loop
vertex 0.000468851 0.0199945 -0.16
vertex 7.32483e-16 3.12373e-14 -0.16
vertex -0.00140552 0.0199506 -0.16
endloop
endfacet
facet normal 0 0 -1
outer loop
vertex 7.32483e-16 3.12373e-14 -0.16
vertex -2.19584e-15 3.11686e-14 -0.16
vertex -0.00140552 0.0199506 -0.16
endloop
endfacet
facet normal 0 0 -1
outer loop
vertex -0.00140552 0.0199506 -0.16
vertex -2.19584e-15 3.11686e-14 -0.16
vertex -0.00326755 0.0197313 -0.16
endloop
endfacet
facet normal 0 0 -1
outer loop
vertex -2.19584e-15 3.11686e-14 -0.16
vertex -5.10486e-15 3.0826e-14 -0.16
vertex -0.00326755 0.0197313 -0.16
endloop
endfacet
facet normal 0 0 -1
outer loop
vertex -0.00326755 0.0197313 -0.16
vertex -5.10486e-15 3.0826e-14 -0.16
vertex -0.00510086 0.0193386 -0.16
endloop
endfacet
facet normal 0 0 -1
outer loop
vertex -5.10486e-15 3.0826e-14 -0.16
vertex -7.96903e-15 3.02125e-14 -0.16
vertex -0.00510086 0.0193386 -0.16
endloop
endfacet
facet normal 0 0 -1
outer loop
vertex -0.00510086 0.0193386 -0.16
vertex -7.96903e-15 3.02125e-14 -0.16
vertex -0.00688934 0.018776 -0.16
endloop
endfacet
facet normal 0 0 -1
outer loop
vertex -7.96903e-15 3.02125e-14 -0.16
vertex -1.07632e-14 2.93335e-14 -0.16
vertex -0.00688934 0.018776 -0.16
endloop
endfacet
facet normal 0 0 -1
outer loop
vertex -0.00688934 0.018776 -0.16
vertex -1.07632e-14 2.93335e-14 -0.16
vertex -0.00861727 0.0180483 -0.16
endloop
endfacet
facet normal 0 0 -1
outer loop
vertex -1.07632e-14 2.93335e-14 -0.16
vertex -1.34627e-14 2.81968e-14 -0.16
vertex -0.00861727 0.0180483 -0.16
endloop
endfacet
facet normal 0 0 -1
outer loop
vertex -0.00861727 0.0180483 -0.16
vertex -1.34627e-14 2.81968e-14 -0.16
vertex -0.0102695 0.0171621 -0.16
endloop
endfacet
facet normal 0 0 -1
outer loop
vertex -1.34627e-14 2.81968e-14 -0.16
vertex -1.60439e-14 2.68122e-14 -0.16
vertex -0.0102695 0.0171621 -0.16
endloop
endfacet
facet normal 0 0 -1
outer loop
vertex -0.0102695 0.0171621 -0.16
vertex -1.60439e-14 2.68122e-14 -0.16
vertex -0.0118314 0.016125 -0.16
endloop
endfacet
facet normal 0 0 -1
outer loop
vertex -1.60439e-14 2.68122e-14 -0.16
vertex -1.84842e-14 2.5192e-14 -0.16
vertex -0.0118314 0.016125 -0.16
endloop
endfacet
facet normal 0 0 -1
outer loop
vertex -0.0118314 0.016125 -0.16
vertex -1.84842e-14 2.5192e-14 -0.16
vertex -0.0132894 0.0149463 -0.16
endloop
endfacet
facet normal 0 0 -1
outer loop
vertex -1.84842e-14 2.5192e-14 -0.16
vertex -2.0762e-14 2.33504e-14 -0.16
vertex -0.0132894 0.0149463 -0.16
endloop
endfacet
facet normal 0 0 -1
outer loop
vertex -0.0132894 0.0149463 -0.16
vertex -2.0762e-14 2.33504e-14 -0.16
vertex -0.0146306 0.0136362 -0.16
endloop
endfacet
facet normal 0 0 -1
outer loop
vertex -2.0762e-14 2.33504e-14 -0.16
vertex -2.28573e-14 2.13037e-14 -0.16
vertex -0.0146306 0.0136362 -0.16
endloop
endfacet
facet normal 0 0 -1
outer loop
vertex -0.0146306 0.0136362 -0.16
vertex -2.28573e-14 2.13037e-14 -0.16
vertex -0.0158432 0.0122062 -0.16
endloop
endfacet
facet normal 0 0 -1
outer loop
vertex -2.28573e-14 2.13037e-14 -0.16
vertex -2.47518e-14 1.90697e-14 -0.16
vertex -0.0158432 0.0122062 -0.16
endloop
endfacet
facet normal 0 0 -1
outer loop
vertex -0.0158432 0.0122062 -0.16
vertex -2.47518e-14 1.90697e-14 -0.16
vertex -0.0169166 0.010669 -0.16
endloop
endfacet
facet normal 0 0 -1
outer loop
vertex -2.47518e-14 1.90697e-14 -0.16
vertex -2.64287e-14 1.66681e-14 -0.16
vertex -0.0169166 0.010669 -0.16
endloop
endfacet
facet normal 0 0 -1
outer loop
vertex -0.0169166 0.010669 -0.16
vertex -2.64287e-14 1.66681e-14 -0.16
vertex -0.0178414 0.00903801 -0.16
endloop
endfacet
facet normal 0 0 -1
outer loop
vertex -2.64287e-14 1.66681e-14 -0.16
vertex -2.78734e-14 1.412e-14 -0.16
vertex -0.0178414 0.00903801 -0.16
endloop
endfacet
facet normal 0 0 -1
outer loop
vertex -0.0178414 0.00903801 -0.16
vertex -2.78734e-14 1.412e-14 -0.16
vertex -0.0186093 0.0073276 -0.16
endloop
endfacet
facet normal 0 0 -1
outer loop
vertex -2.78734e-14 1.412e-14 -0.16
vertex -2.90732e-14 1.14479e-14 -0.16
vertex -0.0186093 0.0073276 -0.16
endloop
endfacet
facet normal 0 0 -1
outer loop
vertex -0.0186093 0.0073276 -0.16
vertex -2.90732e-14 1.14479e-14 -0.16
vertex -0.0192137 0.0055528 -0.16
endloop
endfacet
facet normal 0 0 -1
outer loop
vertex -2.90732e-14 1.14479e-14 -0.16
vertex -3.00174e-14 8.67509e-15 -0.16
vertex -0.0192137 0.0055528 -0.16
endloop
endfacet
facet normal 0 0 -1
outer loop
vertex -0.0192137 0.0055528 -0.16
vertex -3.00174e-14 8.67509e-15 -0.16
vertex -0.0196493 0.0037292 -0.16
endloop
endfacet
facet normal 0 0 -1
outer loop
vertex -3.00174e-14 8.67509e-15 -0.16
vertex -3.06979e-14 5.8261e-15 -0.16
vertex -0.0196493 0.0037292 -0.16
endloop
endfacet
facet normal 0 0 -1
outer loop
vertex -0.0196493 0.0037292 -0.16
vertex -3.06979e-14 5.8261e-15 -0.16
vertex -0.02 1.22814e-15 -0.16
endloop
endfacet
facet normal 0 0 -1
outer loop
vertex -3.06979e-14 5.8261e-15 -0.16
vertex -3.11085e-14 2.92591e-15 -0.16
vertex -0.02 1.22814e-15 -0.16
endloop
endfacet
facet normal 0 0 -1
outer loop
vertex -0.02 1.22814e-15 -0.16
vertex -3.11085e-14 2.92591e-15 -0.16
vertex -0.02 -2.44921e-18 -0.16
endloop
endfacet
facet normal 0 0 -1
outer loop
vertex -3.11085e-14 2.92591e-15 -0.16
vertex -3.12458e-14 -3.82639e-30 -0.16
vertex -0.02 -2.44921e-18 -0.16
endloop
endfacet
endsolid
