<?xml version="1.0" encoding="UTF-8" standalone="no"?>
<!-- Created with Inkscape (http://www.inkscape.org/) -->

<svg
   xmlns:dc="http://purl.org/dc/elements/1.1/"
   xmlns:cc="http://creativecommons.org/ns#"
   xmlns:rdf="http://www.w3.org/1999/02/22-rdf-syntax-ns#"
   xmlns:svg="http://www.w3.org/2000/svg"
   xmlns="http://www.w3.org/2000/svg"
   xmlns:sodipodi="http://sodipodi.sourceforge.net/DTD/sodipodi-0.dtd"
   xmlns:inkscape="http://www.inkscape.org/namespaces/inkscape"
   width="103.861"
   height="34.347"
   id="svg2"
   version="1.1"
   inkscape:version="0.48.4 r9939"
   sodipodi:docname="TLMPluginInterface1D.svg">
  <defs
     id="defs4">
    <linearGradient
       id="linearGradient3779">
      <stop
         style="stop-color:#0254ff;stop-opacity:1;"
         offset="0"
         id="stop3781" />
      <stop
         style="stop-color:#000000;stop-opacity:0;"
         offset="1"
         id="stop3783" />
    </linearGradient>
  </defs>
  <sodipodi:namedview
     id="base"
     pagecolor="#ffffff"
     bordercolor="#666666"
     borderopacity="1.0"
     inkscape:pageopacity="0.0"
     inkscape:pageshadow="2"
     inkscape:zoom="1.4"
     inkscape:cx="-126.9742"
     inkscape:cy="-7.4460822"
     inkscape:document-units="px"
     inkscape:current-layer="layer1"
     showgrid="false"
     fit-margin-top="0"
     fit-margin-left="0"
     fit-margin-right="0"
     fit-margin-bottom="0"
     inkscape:window-width="1600"
     inkscape:window-height="1132"
     inkscape:window-x="-8"
     inkscape:window-y="-8"
     inkscape:window-maximized="1" />
  <metadata
     id="metadata7">
    <rdf:RDF>
      <cc:Work
         rdf:about="">
        <dc:format>image/svg+xml</dc:format>
        <dc:type
           rdf:resource="http://purl.org/dc/dcmitype/StillImage" />
        <dc:title />
      </cc:Work>
    </rdf:RDF>
  </metadata>
  <g
     inkscape:label="Layer 1"
     inkscape:groupmode="layer"
     id="layer1"
     transform="translate(-65.674438,-371.44662)">
    <rect
       y="372.19662"
       x="66.424438"
       height="32.847"
       width="102.361"
       id="rect2987"
       style="fill:#3f69bf;fill-opacity:1;stroke:#000000;stroke-width:1.50000000000000000;stroke-linecap:square;stroke-linejoin:round;stroke-miterlimit:3.61956525000000000;stroke-opacity:1;stroke-dasharray:none;stroke-dashoffset:0" />
    <g
       style="font-size:20px;font-style:normal;font-weight:normal;line-height:125%;letter-spacing:0px;word-spacing:0px;fill:#ffffff;fill-opacity:1;stroke:none;font-family:Sans;-inkscape-font-specification:Sans"
       id="text3757">
      <path
         d="m 87.507278,395.80762 0,-12.62696 -4.716796,0 0,-1.68945 11.347656,0 0,1.68945 -4.736328,0 0,12.62696 z"
         style="fill:#ffffff;fill-opacity:1"
         id="path3757" />
      <path
         d="m 96.013138,395.80762 0,-14.31641 1.894531,0 0,12.62695 7.050781,0 0,1.68946 z"
         style="fill:#ffffff;fill-opacity:1"
         id="path3759" />
      <path
         d="m 107.16548,395.80762 0,-14.31641 2.85156,0 3.38868,10.13672 c 0.31249,0.94401 0.54035,1.65039 0.68359,2.11914 0.16275,-0.52083 0.41666,-1.2858 0.76172,-2.29492 l 3.42773,-9.96094 2.54883,0 0,14.31641 -1.82617,0 0,-11.98242 -4.16016,11.98242 -1.70898,0 -4.14063,-12.1875 0,12.1875 z"
         style="fill:#ffffff;fill-opacity:1"
         id="path3761" />
      <path
         d="m 135.35884,395.80762 -1.75781,0 0,-11.20117 c -0.42318,0.40365 -0.9782,0.8073 -1.66504,1.21093 -0.68685,0.40366 -1.30371,0.70639 -1.85059,0.90821 l 0,-1.69922 c 0.98307,-0.46223 1.84245,-1.02213 2.57813,-1.67969 0.73567,-0.65754 1.2565,-1.29556 1.5625,-1.91406 l 1.13281,0 z"
         style="fill:#ffffff;fill-opacity:1"
         id="path3763" />
      <path
         d="m 140.58345,395.80762 0,-14.31641 4.93164,0 c 1.11327,2e-5 1.96288,0.0684 2.54883,0.20508 0.8203,0.18882 1.52017,0.53061 2.09961,1.02539 0.75519,0.63803 1.31997,1.45346 1.69433,2.44629 0.37434,0.99285 0.56151,2.12729 0.56153,3.40332 -2e-5,1.08724 -0.12697,2.05079 -0.38086,2.89062 -0.25392,0.83985 -0.57944,1.53484 -0.97656,2.08496 -0.39715,0.55014 -0.83172,0.98308 -1.30371,1.29883 -0.47202,0.31576 -1.04168,0.55502 -1.70899,0.71778 -0.66733,0.16276 -1.43393,0.24414 -2.2998,0.24414 z m 1.89453,-1.68946 3.05664,0 c 0.94401,1e-5 1.68456,-0.0879 2.22168,-0.26367 0.5371,-0.17578 0.96516,-0.42317 1.28418,-0.74219 0.44921,-0.44921 0.79914,-1.05305 1.04981,-1.81152 0.25064,-0.75846 0.37596,-1.67805 0.37597,-2.75879 -1e-5,-1.49738 -0.24578,-2.6481 -0.7373,-3.45215 -0.49155,-0.80402 -1.08888,-1.34276 -1.79199,-1.61621 -0.50782,-0.1953 -1.32488,-0.29295 -2.45118,-0.29297 l -3.00781,0 z"
         style="fill:#ffffff;fill-opacity:1"
         id="path3765" />
    </g>
  </g>
</svg>
