<?xml version="1.0" encoding="UTF-8" standalone="no"?>
<!-- Created with Inkscape (http://www.inkscape.org/) -->

<svg
   xmlns:dc="http://purl.org/dc/elements/1.1/"
   xmlns:cc="http://creativecommons.org/ns#"
   xmlns:rdf="http://www.w3.org/1999/02/22-rdf-syntax-ns#"
   xmlns:svg="http://www.w3.org/2000/svg"
   xmlns="http://www.w3.org/2000/svg"
   xmlns:sodipodi="http://sodipodi.sourceforge.net/DTD/sodipodi-0.dtd"
   xmlns:inkscape="http://www.inkscape.org/namespaces/inkscape"
   width="103.861"
   height="34.347"
   id="svg2"
   version="1.1"
   inkscape:version="0.48.4 r9939"
   sodipodi:docname="TLMPluginInterfaceSignalInput.svg">
  <defs
     id="defs4">
    <linearGradient
       id="linearGradient3779">
      <stop
         style="stop-color:#0254ff;stop-opacity:1;"
         offset="0"
         id="stop3781" />
      <stop
         style="stop-color:#000000;stop-opacity:0;"
         offset="1"
         id="stop3783" />
    </linearGradient>
  </defs>
  <sodipodi:namedview
     id="base"
     pagecolor="#ffffff"
     bordercolor="#666666"
     borderopacity="1.0"
     inkscape:pageopacity="0.0"
     inkscape:pageshadow="2"
     inkscape:zoom="1.4"
     inkscape:cx="-126.9742"
     inkscape:cy="-7.4460822"
     inkscape:document-units="px"
     inkscape:current-layer="layer1"
     showgrid="false"
     fit-margin-top="0"
     fit-margin-left="0"
     fit-margin-right="0"
     fit-margin-bottom="0"
     inkscape:window-width="1600"
     inkscape:window-height="1132"
     inkscape:window-x="-8"
     inkscape:window-y="-8"
     inkscape:window-maximized="1" />
  <metadata
     id="metadata7">
    <rdf:RDF>
      <cc:Work
         rdf:about="">
        <dc:format>image/svg+xml</dc:format>
        <dc:type
           rdf:resource="http://purl.org/dc/dcmitype/StillImage" />
        <dc:title />
      </cc:Work>
    </rdf:RDF>
  </metadata>
  <g
     inkscape:label="Layer 1"
     inkscape:groupmode="layer"
     id="layer1"
     transform="translate(-65.674438,-371.44662)">
    <rect
       y="372.19662"
       x="66.424438"
       height="32.847"
       width="102.361"
       id="rect2987"
       style="fill:#40bf4d;fill-opacity:1;stroke:#000000;stroke-width:1.50000000000000000;stroke-linecap:square;stroke-linejoin:round;stroke-miterlimit:3.61956525000000000;stroke-opacity:1;stroke-dasharray:none;stroke-dashoffset:0" />
    <g
       style="font-size:20px;font-style:normal;font-weight:normal;line-height:125%;letter-spacing:0px;word-spacing:0px;fill:#ffffff;fill-opacity:1;stroke:none;font-family:Sans;-inkscape-font-specification:Sans"
       id="text3757">
      <path
         d="m 90.588333,395.77832 0,-12.62695 -4.716797,0 0,-1.68946 11.347657,0 0,1.68946 -4.736329,0 0,12.62695 z"
         style="fill:#ffffff;fill-opacity:1"
         id="path3757" />
      <path
         d="m 99.094193,395.77832 0,-14.31641 1.894527,0 0,12.62696 7.05079,0 0,1.68945 z"
         style="fill:#ffffff;fill-opacity:1"
         id="path3759" />
      <path
         d="m 110.24654,395.77832 0,-14.31641 2.85156,0 3.38867,10.13672 c 0.31249,0.94402 0.54036,1.6504 0.68359,2.11914 0.16276,-0.52083 0.41666,-1.2858 0.76172,-2.29492 l 3.42774,-9.96094 2.54883,0 0,14.31641 -1.82618,0 0,-11.98242 -4.16015,11.98242 -1.70899,0 -4.14062,-12.1875 0,12.1875 z"
         style="fill:#ffffff;fill-opacity:1"
         id="path3761" />
      <path
         d="m 132.85396,395.77832 0,-14.31641 1.89453,0 0,14.31641 z"
         style="fill:#ffffff;fill-opacity:1"
         id="path3763" />
      <path
         d="m 138.05904,395.77832 0,-14.31641 1.94336,0 7.51953,11.24024 0,-11.24024 1.8164,0 0,14.31641 -1.94336,0 -7.51953,-11.25 0,11.25 z"
         style="fill:#ffffff;fill-opacity:1"
         id="path3765" />
    </g>
  </g>
</svg>
